<svg viewBox="0 0 60 60" xmlns="http://www.w3.org/2000/svg"><g stroke="#454545" stroke-linecap="round" stroke-linejoin="round"><g fill="none"><path d="m11.14 31.89h8.39a3.12 3.12 0 0 1 3.12 3.11 3.12 3.12 0 0 1 -3.12 3.11h-8.39"/><path d="m14.76 31.89v14.11"/><path d="m11.79 43.05h5.93"/><path d="m39 34.35v11.42h14.75v8.6h-53.25v-32.24a2 2 0 0 1 2-2h49.28a2 2 0 0 1 2 2v12.22z"/></g><path d="m43.93 20.17h-6.49l-7.05-11.46-15.33 11.46h-9.53l26.3-19.67z" fill="#4e92df"/><path d="m53.79 34.35h-14.79v11.42h14.79a5.71 5.71 0 0 0 0-11.42zm0 8.6a2.89 2.89 0 1 1 2.89-2.89 2.88 2.88 0 0 1 -2.93 2.94z" fill="none"/><path d="m56.64 40.06a2.89 2.89 0 1 1 -2.89-2.88 2.9 2.9 0 0 1 2.89 2.88z" fill="none"/><path d="m53.75 54.37v3.16a2 2 0 0 1 -2 2h-49.28a2 2 0 0 1 -2-2v-3.16z" fill="#4e92df"/></g></svg>