<svg id="Слой_1" data-name="Слой 1" xmlns="http://www.w3.org/2000/svg" viewBox="0 0 60 60"><defs><style>.cls-1{fill:none;}.cls-1,.cls-2{stroke:#454545;stroke-linecap:round;stroke-linejoin:round;}.cls-2{fill:#4e92df;}</style></defs><rect class="cls-1" x="32.5" y="24.5" width="27" height="35" rx="1"/><path class="cls-1" d="M36.76,56.13l2.86-2.68a1,1,0,0,1,1.66.72h0a1,1,0,0,0,1.8.57l1.08-1.53A1,1,0,0,1,45,52.8h2.59"/><path class="cls-1" d="M.5,39a9.83,9.83,0,0,1,9.83-9.83H26.07a9.74,9.74,0,0,1,6.43,2.4"/><rect class="cls-1" x="5.11" y="14.14" width="26.18" height="3.2"/><path class="cls-1" d="M27.06,17.34v3a8.86,8.86,0,0,1-17.72,0v-3Z"/><path class="cls-1" d="M29.09,14.14H7.31a11.57,11.57,0,0,1,4.58-9.3V2.54a2,2,0,0,1,2-2h8.54a2,2,0,0,1,2,2V4.83A11.6,11.6,0,0,1,29.09,14.14Z"/><line class="cls-1" x1="11.89" y1="4.84" x2="11.89" y2="11.11"/><line class="cls-1" x1="24.51" y1="4.83" x2="24.51" y2="11.11"/><rect class="cls-2" x="36.76" y="28.19" width="4.92" height="4.92"/><line class="cls-2" x1="44.65" y1="29.42" x2="54.37" y2="29.42"/><line class="cls-2" x1="44.65" y1="31.88" x2="52.37" y2="31.88"/><rect class="cls-2" x="36.76" y="35.56" width="4.92" height="4.92"/><line class="cls-2" x1="44.65" y1="36.79" x2="54.37" y2="36.79"/><line class="cls-2" x1="44.65" y1="39.25" x2="52.37" y2="39.25"/><rect class="cls-2" x="36.76" y="42.93" width="4.92" height="4.92"/><line class="cls-2" x1="44.65" y1="44.16" x2="54.37" y2="44.16"/><line class="cls-2" x1="44.65" y1="46.62" x2="52.37" y2="46.62"/><path class="cls-1" d="M12.35,35.28h8.53a3.17,3.17,0,0,1,3.17,3.17h0a3.17,3.17,0,0,1-3.17,3.16H12.35"/><line class="cls-1" x1="16.03" y1="35.28" x2="16.03" y2="49.63"/><line class="cls-1" x1="13.02" y1="46.62" x2="19.04" y2="46.62"/></svg>