<svg id="Слой_1" data-name="Слой 1" xmlns="http://www.w3.org/2000/svg" viewBox="0 0 60 60"><defs><style>.cls-1{fill:#4e92df;}.cls-1,.cls-2{stroke:#454545;stroke-linecap:round;stroke-linejoin:round;}.cls-2{fill:none;}</style></defs><polygon class="cls-1" points="44.48 21.66 35.11 35.15 30.81 41.35 25.23 31.06 31.16 34.52 33.35 32.41 44.48 21.66"/><path class="cls-2" d="M35.9,39a9.77,9.77,0,0,0-.79-3.87"/><path class="cls-2" d="M.5,39a9.83,9.83,0,0,1,9.83-9.83H26.07a9.82,9.82,0,0,1,7.28,3.22"/><rect class="cls-2" x="5.11" y="14.14" width="26.18" height="3.2"/><path class="cls-2" d="M27.06,17.34v3a8.86,8.86,0,0,1-17.72,0v-3Z"/><path class="cls-2" d="M29.09,14.14H7.31a11.57,11.57,0,0,1,4.58-9.3V2.54a2,2,0,0,1,2-2h8.54a2,2,0,0,1,2,2V4.83A11.6,11.6,0,0,1,29.09,14.14Z"/><line class="cls-2" x1="11.89" y1="4.84" x2="11.89" y2="11.11"/><line class="cls-2" x1="24.51" y1="4.83" x2="24.51" y2="11.11"/><path class="cls-1" d="M59.5,31a6.65,6.65,0,0,1-8.86,6.43L45,43l-2,2-5.62,5.61A6.65,6.65,0,0,1,31,59.5c-.79,0-1-.64-.4-1.2l1.7-1.7c1.61-1.62,1.61-3.27,0-4.88s-3.27-1.62-4.89,0l-1.7,1.7c-.55.55-1.17.38-1.19-.41a6.64,6.64,0,0,1,8.86-6.42L39,41l2-2,5.61-5.62A6.66,6.66,0,0,1,53,24.5c.78,0,1,.64.4,1.2l-1.7,1.7c-1.62,1.62-1.62,3.27,0,4.88s3.26,1.62,4.88,0l1.7-1.7C58.86,30,59.48,30.2,59.5,31Z"/></svg>