<svg id="Слой_1" data-name="Слой 1" xmlns="http://www.w3.org/2000/svg" viewBox="0 0 60 60"><defs><style>.cls-1{fill:none;}.cls-1,.cls-2{stroke:#454545;stroke-linecap:round;stroke-linejoin:round;}.cls-2{fill:#4e92df;fill-rule:evenodd;}</style></defs><line class="cls-1" x1="11.25" y1="37.83" x2="25.15" y2="37.83"/><polyline class="cls-1" points="22.26 35.9 25.15 37.83 22.26 39.76"/><path class="cls-1" d="M34.56,34.07a9.8,9.8,0,0,0-8.49-4.88H10.33A9.83,9.83,0,0,0,.5,39"/><rect class="cls-1" x="5.11" y="14.14" width="26.18" height="3.2"/><path class="cls-1" d="M27.06,17.34v3a8.86,8.86,0,0,1-17.72,0v-3Z"/><path class="cls-1" d="M29.09,14.14H7.31a11.57,11.57,0,0,1,4.58-9.3V2.54a2,2,0,0,1,2-2h8.54a2,2,0,0,1,2,2V4.83A11.6,11.6,0,0,1,29.09,14.14Z"/><line class="cls-1" x1="11.89" y1="4.84" x2="11.89" y2="11.11"/><line class="cls-1" x1="24.51" y1="4.83" x2="24.51" y2="11.11"/><path class="cls-2" d="M55.79,28.21A12.66,12.66,0,0,0,36.06,43.8a12.15,12.15,0,0,0,1.83,2.31,12.66,12.66,0,0,0,17.9-17.9Zm-15,15a8.61,8.61,0,1,1,12.18,0A8.61,8.61,0,0,1,40.75,43.25Z"/><path class="cls-2" d="M40.2,47.94,29.49,58.64a2.9,2.9,0,0,1-4.13,0h0a2.9,2.9,0,0,1,0-4.13L36.06,43.8a12.15,12.15,0,0,0,1.83,2.31A12.56,12.56,0,0,0,40.2,47.94Z"/></svg>