<svg id="Слой_1" data-name="Слой 1" xmlns="http://www.w3.org/2000/svg" viewBox="0 0 60 60"><defs><style>.cls-1{fill:none;}.cls-1,.cls-2{stroke:#454545;stroke-linecap:round;stroke-linejoin:round;}.cls-2{fill:#4e92df;fill-rule:evenodd;}</style></defs><path class="cls-1" d="M.5,39a9.83,9.83,0,0,1,9.83-9.83H26.07A9.83,9.83,0,0,1,35.9,39"/><rect class="cls-1" x="5.11" y="14.14" width="26.18" height="3.2"/><path class="cls-1" d="M27.06,17.34v3a8.86,8.86,0,0,1-17.72,0v-3Z"/><path class="cls-1" d="M29.09,14.14H7.31a11.57,11.57,0,0,1,4.58-9.3V2.54a2,2,0,0,1,2-2h8.54a2,2,0,0,1,2,2V4.83A11.6,11.6,0,0,1,29.09,14.14Z"/><line class="cls-1" x1="11.89" y1="4.84" x2="11.89" y2="11.11"/><line class="cls-1" x1="24.51" y1="4.83" x2="24.51" y2="11.11"/><path class="cls-2" d="M52.24,25.07a2.1,2.1,0,0,1,2.9-.33c3.36,2.48,5.27,6,3.93,10.64-1.44,5.4-12.56,20-17.57,22.75-4.24,2.4-8,1.42-11.26-1.16a1.93,1.93,0,0,1-.34-2.78L34.53,48a2.09,2.09,0,0,1,2.9-.32l1.19.87c2.15,1.72,3.71.74,5-1l5.89-7.54c1.3-1.73,1.75-3.33-.39-5l-1.2-.87a2.1,2.1,0,0,1-.32-2.9l4.63-6.16Z"/><circle class="cls-1" cx="18.2" cy="44.18" r="11.58"/><line class="cls-1" x1="18.2" y1="32.6" x2="18.2" y2="33.84"/><line class="cls-1" x1="12.41" y1="34.15" x2="13.03" y2="35.23"/><line class="cls-1" x1="8.17" y1="38.39" x2="9.24" y2="39.01"/><line class="cls-1" x1="6.62" y1="44.18" x2="7.86" y2="44.18"/><line class="cls-1" x1="8.17" y1="49.97" x2="9.24" y2="49.35"/><line class="cls-1" x1="12.41" y1="54.21" x2="13.03" y2="53.14"/><line class="cls-1" x1="18.2" y1="55.76" x2="18.2" y2="54.52"/><line class="cls-1" x1="23.99" y1="54.21" x2="23.37" y2="53.14"/><line class="cls-1" x1="28.23" y1="49.97" x2="27.16" y2="49.35"/><line class="cls-1" x1="29.78" y1="44.18" x2="28.54" y2="44.18"/><line class="cls-1" x1="28.23" y1="38.39" x2="27.16" y2="39.01"/><line class="cls-1" x1="23.99" y1="34.15" x2="23.37" y2="35.23"/><path class="cls-1" d="M19.71,44.18a1.45,1.45,0,0,1-.18.7,1.5,1.5,0,0,1-1.33.81,1.52,1.52,0,0,1-1.51-1.51,1.5,1.5,0,0,1,2.21-1.33,1.44,1.44,0,0,1,.63.64A1.37,1.37,0,0,1,19.71,44.18Z"/><line class="cls-1" x1="18.2" y1="42.67" x2="18.2" y2="36.78"/><line class="cls-1" x1="19.71" y1="44.18" x2="21.98" y2="44.18"/></svg>