<?xml version="1.0" encoding="UTF-8" standalone="no"?>
<!-- Created with Inkscape (http://www.inkscape.org/) -->

<svg
   width="436.42181mm"
   height="129.99588mm"
   viewBox="0 0 436.42182 129.99588"
   version="1.1"
   id="svg5"
   xml:space="preserve"
   sodipodi:docname="logo2.svg"
   inkscape:version="1.1.2 (0a00cf5339, 2022-02-04)"
   xmlns:inkscape="http://www.inkscape.org/namespaces/inkscape"
   xmlns:sodipodi="http://sodipodi.sourceforge.net/DTD/sodipodi-0.dtd"
   xmlns:xlink="http://www.w3.org/1999/xlink"
   xmlns="http://www.w3.org/2000/svg"
   xmlns:svg="http://www.w3.org/2000/svg"><sodipodi:namedview
     id="namedview7"
     pagecolor="#505050"
     bordercolor="#ffffff"
     borderopacity="1"
     inkscape:showpageshadow="0"
     inkscape:pageopacity="0"
     inkscape:pagecheckerboard="1"
     inkscape:deskcolor="#505050"
     inkscape:document-units="mm"
     showgrid="false"
     inkscape:zoom="0.52221045"
     inkscape:cx="372.4552"
     inkscape:cy="148.4076"
     inkscape:window-width="1846"
     inkscape:window-height="1016"
     inkscape:window-x="74"
     inkscape:window-y="27"
     inkscape:window-maximized="1"
     inkscape:current-layer="layer1"
     inkscape:pageshadow="0" /><defs
     id="defs2"><linearGradient
       inkscape:collect="always"
       id="linearGradient4224"><stop
         style="stop-color:#0080ff;stop-opacity:1;"
         offset="0"
         id="stop4220" /><stop
         style="stop-color:#0080ff;stop-opacity:0;"
         offset="1"
         id="stop4222" /></linearGradient><linearGradient
       inkscape:collect="always"
       xlink:href="#linearGradient4224"
       id="linearGradient4226"
       x1="114.343"
       y1="245.16113"
       x2="375.97975"
       y2="245.16113"
       gradientUnits="userSpaceOnUse" /></defs><g
     inkscape:label="Слой 1"
     inkscape:groupmode="layer"
     id="layer1"
     transform="translate(14.191405,-4.5050779)"><g
       id="g199"
       transform="matrix(0.26458333,0,0,0.26458333,-44.444657,4.6373696)"
       style="fill:#0080ff;fill-opacity:1;stroke:url(#linearGradient4226);stroke-width:5.66929141;stroke-miterlimit:4;stroke-dasharray:none"><g
         id="XMLID_681_"
         style="fill:#0080ff;fill-opacity:1;stroke:url(#linearGradient4226);stroke-opacity:1;stroke-width:5.66929141;stroke-miterlimit:4;stroke-dasharray:none">
	<g
   id="g140"
   style="fill:#0080ff;fill-opacity:1;stroke:url(#linearGradient4226);stroke-opacity:1;stroke-width:5.66929141;stroke-miterlimit:4;stroke-dasharray:none">
		<g
   id="g138"
   style="fill:#0080ff;fill-opacity:1;stroke:url(#linearGradient4226);stroke-opacity:1;stroke-width:5.66929141;stroke-miterlimit:4;stroke-dasharray:none">
			<path
   id="path132"
   style="fill:#0080ff;fill-opacity:1;stroke:url(#linearGradient4226);stroke-opacity:1;stroke-width:5.66929141;stroke-miterlimit:4;stroke-dasharray:none"
   d="M 166.4387,-1.2598426e-7 C 137.98891,-1.2598426e-7 114.843,23.1459 114.843,51.595704 V 438.72657 c 0,28.44979 23.14691,51.5957 51.5957,51.5957 h 157.44727 c 28.44979,0 51.59375,-23.14491 51.59375,-51.5957 v -67.38672 l -15.64258,0.54883 v 66.83789 c 0.001,19.82586 -16.12731,35.95508 -35.95117,35.95508 H 166.4387 c -19.82486,0 -35.95507,-16.13022 -35.95507,-35.95508 v -239.3379 h 149.28515 l 1.66016,-15.64062 H 130.48558 V 51.595704 c 0,-19.824867 16.12926,-35.953126 35.95312,-35.953126 h 157.44727 c 19.82486,0 35.95313,16.128259 35.95313,35.953126 v 62.761716 l 15.64065,-4.11331 V 51.595704 C 375.48057,23.1459 352.33476,-1.2598428e-7 323.88597,-1.2598426e-7 Z M 359.83714,199.38867 v 94.53126 c 0,0 10.74222,-0.82483 15.48438,-1.83594 0.0533,-0.0115 0.10516,-45.72179 0.1582,-45.73289 v -49.51757 z"
   sodipodi:nodetypes="sssssscccsssccccsssscccsscccccc" />
			<rect
   x="153.12399"
   y="222.19299"
   width="15.642"
   height="53.592999"
   id="rect134"
   style="fill:#0080ff;fill-opacity:1;stroke:url(#linearGradient4226);stroke-opacity:1;stroke-width:5.66929141;stroke-miterlimit:4;stroke-dasharray:none" />
			<rect
   x="153.12399"
   y="107.351"
   width="15.642"
   height="53.592999"
   id="rect136"
   style="fill:#0080ff;fill-opacity:1;stroke:url(#linearGradient4226);stroke-opacity:1;stroke-width:5.66929141;stroke-miterlimit:4;stroke-dasharray:none" />
		</g>
	</g>
</g><g
         id="g143"
         style="fill:#0080ff;fill-opacity:1;stroke:url(#linearGradient4226);stroke-width:5.66929141;stroke-miterlimit:4;stroke-dasharray:none">
</g><g
         id="g145"
         style="fill:#0080ff;fill-opacity:1;stroke:url(#linearGradient4226);stroke-width:5.66929141;stroke-miterlimit:4;stroke-dasharray:none">
</g><g
         id="g147"
         style="fill:#0080ff;fill-opacity:1;stroke:url(#linearGradient4226);stroke-width:5.66929141;stroke-miterlimit:4;stroke-dasharray:none">
</g><g
         id="g149"
         style="fill:#0080ff;fill-opacity:1;stroke:url(#linearGradient4226);stroke-width:5.66929141;stroke-miterlimit:4;stroke-dasharray:none">
</g><g
         id="g151"
         style="fill:#0080ff;fill-opacity:1;stroke:url(#linearGradient4226);stroke-width:5.66929141;stroke-miterlimit:4;stroke-dasharray:none">
</g><g
         id="g153"
         style="fill:#0080ff;fill-opacity:1;stroke:url(#linearGradient4226);stroke-width:5.66929141;stroke-miterlimit:4;stroke-dasharray:none">
</g><g
         id="g155"
         style="fill:#0080ff;fill-opacity:1;stroke:url(#linearGradient4226);stroke-width:5.66929141;stroke-miterlimit:4;stroke-dasharray:none">
</g><g
         id="g157"
         style="fill:#0080ff;fill-opacity:1;stroke:url(#linearGradient4226);stroke-width:5.66929141;stroke-miterlimit:4;stroke-dasharray:none">
</g><g
         id="g159"
         style="fill:#0080ff;fill-opacity:1;stroke:url(#linearGradient4226);stroke-width:5.66929141;stroke-miterlimit:4;stroke-dasharray:none">
</g><g
         id="g161"
         style="fill:#0080ff;fill-opacity:1;stroke:url(#linearGradient4226);stroke-width:5.66929141;stroke-miterlimit:4;stroke-dasharray:none">
</g><g
         id="g163"
         style="fill:#0080ff;fill-opacity:1;stroke:url(#linearGradient4226);stroke-width:5.66929141;stroke-miterlimit:4;stroke-dasharray:none">
</g><g
         id="g165"
         style="fill:#0080ff;fill-opacity:1;stroke:url(#linearGradient4226);stroke-width:5.66929141;stroke-miterlimit:4;stroke-dasharray:none">
</g><g
         id="g167"
         style="fill:#0080ff;fill-opacity:1;stroke:url(#linearGradient4226);stroke-width:5.66929141;stroke-miterlimit:4;stroke-dasharray:none">
</g><g
         id="g169"
         style="fill:#0080ff;fill-opacity:1;stroke:url(#linearGradient4226);stroke-width:5.66929141;stroke-miterlimit:4;stroke-dasharray:none">
</g><g
         id="g171"
         style="fill:#0080ff;fill-opacity:1;stroke:url(#linearGradient4226);stroke-width:5.66929141;stroke-miterlimit:4;stroke-dasharray:none">
</g></g><g
       id="g263"
       transform="matrix(0.15010332,0,0,0.15010332,17.811819,32.655296)"
       style="fill:#0080ff;fill-opacity:1;stroke:#0080ff;stroke-opacity:1;stroke-width:9.99311674;stroke-miterlimit:4;stroke-dasharray:none"><g
         id="g207"
         style="fill:#0080ff;fill-opacity:1;stroke:#0080ff;stroke-opacity:1;stroke-width:9.99311674;stroke-miterlimit:4;stroke-dasharray:none">
	<g
   id="g205"
   style="fill:#0080ff;fill-opacity:1;stroke:#0080ff;stroke-opacity:1;stroke-width:9.99311674;stroke-miterlimit:4;stroke-dasharray:none">
		<path
   d="m 454.2,189.101 -33.6,-5.7 c -3.5,-11.3 -8,-22.2 -13.5,-32.6 l 19.8,-27.7 c 8.4,-11.8 7.1,-27.9 -3.2,-38.1 l -29.8,-29.8 c -5.6,-5.6 -13,-8.7 -20.9,-8.7 -6.2,0 -12.1,1.9 -17.1,5.5 l -27.8,19.8 c -10.8,-5.7 -22.1,-10.4 -33.8,-13.9 l -5.6,-33.2 c -2.4,-14.3 -14.7,-24.7 -29.2,-24.7 h -42.1 c -14.5,0 -26.8,10.4 -29.2,24.7 l -5.8,34 c -11.2,3.5 -22.1,8.1 -32.5,13.7 l -27.5,-19.8 c -5,-3.6 -11,-5.5 -17.2,-5.5 -7.9,0 -15.4,3.1 -20.9,8.7 l -29.9,29.8 c -10.2,10.2 -11.6,26.3 -3.2,38.1 l 20,28.1 c -5.5,10.5 -9.9,21.4 -13.3,32.7 l -33.2,5.6 c -14.3,2.4 -24.7,14.7 -24.7,29.2 v 42.1 c 0,14.5 10.4,26.8 24.7,29.2 l 34,5.8 c 3.5,11.2 8.1,22.1 13.7,32.5 l -19.7,27.4 c -8.4,11.8 -7.1,27.9 3.2,38.1 l 29.8,29.8 c 5.6,5.6 13,8.7 20.9,8.7 6.2,0 12.1,-1.9 17.1,-5.5 l 28.1,-20 c 10.1,5.3 20.7,9.6 31.6,13 l 5.6,33.6 c 2.4,14.3 14.7,24.7 29.2,24.7 h 42.2 c 14.5,0 26.8,-10.4 29.2,-24.7 l 5.7,-33.6 c 11.3,-3.5 22.2,-8 32.6,-13.5 l 27.7,19.8 c 5,3.6 11,5.5 17.2,5.5 v 0 c 7.9,0 15.3,-3.1 20.9,-8.7 l 29.8,-29.8 c 10.2,-10.2 11.6,-26.3 3.2,-38.1 l -19.8,-27.8 c 5.5,-10.5 10.1,-21.4 13.5,-32.6 l 33.6,-5.6 c 14.3,-2.4 24.7,-14.7 24.7,-29.2 v -42.1 c 0.2,-14.5 -10.2,-26.8 -24.5,-29.2 z m -2.3,71.3 c 0,1.3 -0.9,2.4 -2.2,2.6 l -42,7 c -5.3,0.9 -9.5,4.8 -10.8,9.9 -3.8,14.7 -9.6,28.8 -17.4,41.9 -2.7,4.6 -2.5,10.3 0.6,14.7 l 24.7,34.8 c 0.7,1 0.6,2.5 -0.3,3.4 l -29.8,29.8 c -0.7,0.7 -1.4,0.8 -1.9,0.8 -0.6,0 -1.1,-0.2 -1.5,-0.5 l -34.7,-24.7 c -4.3,-3.1 -10.1,-3.3 -14.7,-0.6 -13.1,7.8 -27.2,13.6 -41.9,17.4 -5.2,1.3 -9.1,5.6 -9.9,10.8 l -7.1,42 c -0.2,1.3 -1.3,2.2 -2.6,2.2 h -42.1 c -1.3,0 -2.4,-0.9 -2.6,-2.2 l -7,-42 c -0.9,-5.3 -4.8,-9.5 -9.9,-10.8 -14.3,-3.7 -28.1,-9.4 -41,-16.8 -2.1,-1.2 -4.5,-1.8 -6.8,-1.8 -2.7,0 -5.5,0.8 -7.8,2.5 l -35,24.9 c -0.5,0.3 -1,0.5 -1.5,0.5 -0.4,0 -1.2,-0.1 -1.9,-0.8 L 75,375.601 c -0.9,-0.9 -1,-2.3 -0.3,-3.4 l 24.6,-34.5 c 3.1,-4.4 3.3,-10.2 0.6,-14.8 -7.8,-13 -13.8,-27.1 -17.6,-41.8 -1.4,-5.1 -5.6,-9 -10.8,-9.9 l -42.3,-7.2 c -1.3,-0.2 -2.2,-1.3 -2.2,-2.6 v -42.1 c 0,-1.3 0.9,-2.4 2.2,-2.6 l 41.7,-7 c 5.3,-0.9 9.6,-4.8 10.9,-10 3.7,-14.7 9.4,-28.9 17.1,-42 2.7,-4.6 2.4,-10.3 -0.7,-14.6 l -24.9,-35 c -0.7,-1 -0.6,-2.5 0.3,-3.4 l 29.8,-29.8 c 0.7,-0.7 1.4,-0.8 1.9,-0.8 0.6,0 1.1,0.2 1.5,0.5 l 34.5,24.6 c 4.4,3.1 10.2,3.3 14.8,0.6 13,-7.8 27.1,-13.8 41.8,-17.6 5.1,-1.4 9,-5.6 9.9,-10.8 l 7.2,-42.3 c 0.2,-1.3 1.3,-2.2 2.6,-2.2 h 42.1 c 1.3,0 2.4,0.9 2.6,2.2 l 7,41.7 c 0.9,5.3 4.8,9.6 10,10.9 15.1,3.8 29.5,9.7 42.9,17.6 4.6,2.7 10.3,2.5 14.7,-0.6 l 34.5,-24.8 c 0.5,-0.3 1,-0.5 1.5,-0.5 0.4,0 1.2,0.1 1.9,0.8 l 29.8,29.8 c 0.9,0.9 1,2.3 0.3,3.4 l -24.7,34.7 c -3.1,4.3 -3.3,10.1 -0.6,14.7 7.8,13.1 13.6,27.2 17.4,41.9 1.3,5.2 5.6,9.1 10.8,9.9 l 42,7.1 c 1.3,0.2 2.2,1.3 2.2,2.6 v 42.1 z"
   id="path201"
   style="fill:#0080ff;fill-opacity:1;stroke:#0080ff;stroke-opacity:1;stroke-width:9.99311674;stroke-miterlimit:4;stroke-dasharray:none" />
		<path
   d="m 239.4,136.001 c -57,0 -103.3,46.3 -103.3,103.3 0,57 46.3,103.3 103.3,103.3 57,0 103.3,-46.3 103.3,-103.3 0,-57 -46.3,-103.3 -103.3,-103.3 z m 0,179.6 c -42.1,0 -76.3,-34.2 -76.3,-76.3 0,-42.1 34.2,-76.3 76.3,-76.3 42.1,0 76.3,34.2 76.3,76.3 0,42.1 -34.2,76.3 -76.3,76.3 z"
   id="path203"
   style="fill:#0080ff;fill-opacity:1;stroke:#0080ff;stroke-opacity:1;stroke-width:9.99311674;stroke-miterlimit:4;stroke-dasharray:none" />
	</g>
</g><g
         id="g209"
         style="fill:#0080ff;fill-opacity:1;stroke:#0080ff;stroke-opacity:1;stroke-width:9.99311674;stroke-miterlimit:4;stroke-dasharray:none">
</g><g
         id="g211"
         style="fill:#0080ff;fill-opacity:1;stroke:#0080ff;stroke-opacity:1;stroke-width:9.99311674;stroke-miterlimit:4;stroke-dasharray:none">
</g><g
         id="g213"
         style="fill:#0080ff;fill-opacity:1;stroke:#0080ff;stroke-opacity:1;stroke-width:9.99311674;stroke-miterlimit:4;stroke-dasharray:none">
</g><g
         id="g215"
         style="fill:#0080ff;fill-opacity:1;stroke:#0080ff;stroke-opacity:1;stroke-width:9.99311674;stroke-miterlimit:4;stroke-dasharray:none">
</g><g
         id="g217"
         style="fill:#0080ff;fill-opacity:1;stroke:#0080ff;stroke-opacity:1;stroke-width:9.99311674;stroke-miterlimit:4;stroke-dasharray:none">
</g><g
         id="g219"
         style="fill:#0080ff;fill-opacity:1;stroke:#0080ff;stroke-opacity:1;stroke-width:9.99311674;stroke-miterlimit:4;stroke-dasharray:none">
</g><g
         id="g221"
         style="fill:#0080ff;fill-opacity:1;stroke:#0080ff;stroke-opacity:1;stroke-width:9.99311674;stroke-miterlimit:4;stroke-dasharray:none">
</g><g
         id="g223"
         style="fill:#0080ff;fill-opacity:1;stroke:#0080ff;stroke-opacity:1;stroke-width:9.99311674;stroke-miterlimit:4;stroke-dasharray:none">
</g><g
         id="g225"
         style="fill:#0080ff;fill-opacity:1;stroke:#0080ff;stroke-opacity:1;stroke-width:9.99311674;stroke-miterlimit:4;stroke-dasharray:none">
</g><g
         id="g227"
         style="fill:#0080ff;fill-opacity:1;stroke:#0080ff;stroke-opacity:1;stroke-width:9.99311674;stroke-miterlimit:4;stroke-dasharray:none">
</g><g
         id="g229"
         style="fill:#0080ff;fill-opacity:1;stroke:#0080ff;stroke-opacity:1;stroke-width:9.99311674;stroke-miterlimit:4;stroke-dasharray:none">
</g><g
         id="g231"
         style="fill:#0080ff;fill-opacity:1;stroke:#0080ff;stroke-opacity:1;stroke-width:9.99311674;stroke-miterlimit:4;stroke-dasharray:none">
</g><g
         id="g233"
         style="fill:#0080ff;fill-opacity:1;stroke:#0080ff;stroke-opacity:1;stroke-width:9.99311674;stroke-miterlimit:4;stroke-dasharray:none">
</g><g
         id="g235"
         style="fill:#0080ff;fill-opacity:1;stroke:#0080ff;stroke-opacity:1;stroke-width:9.99311674;stroke-miterlimit:4;stroke-dasharray:none">
</g><g
         id="g237"
         style="fill:#0080ff;fill-opacity:1;stroke:#0080ff;stroke-opacity:1;stroke-width:9.99311674;stroke-miterlimit:4;stroke-dasharray:none">
</g></g><g
       aria-label="MOROZ"
       id="text1031"
       style="font-weight:bold;font-size:88.1944px;font-family:Rubik;-inkscape-font-specification:'Rubik Bold';fill:#0080ff;stroke:none;stroke-width:0.301625;fill-opacity:1"><path
         d="m 117.54449,100.58572 q -0.88194,0 -1.5875,-0.617365 -0.61736,-0.705555 -0.61736,-1.587499 V 41.054498 q 0,-0.970138 0.61736,-1.587499 0.70556,-0.617361 1.5875,-0.617361 h 9.525 q 1.4993,0 2.20486,0.79375 0.70555,0.705555 0.88194,1.146527 L 145.6785,68.57115 161.20072,40.789915 q 0.26458,-0.440972 0.88194,-1.146527 0.70556,-0.79375 2.20486,-0.79375 h 9.4368 q 0.97014,0 1.5875,0.617361 0.70556,0.617361 0.70556,1.587499 v 57.326358 q 0,0.881944 -0.70556,1.587499 -0.61736,0.617365 -1.5875,0.617365 h -10.49513 q -0.97014,0 -1.67569,-0.617365 -0.61737,-0.705555 -0.61737,-1.587499 V 65.307957 l -9.87777,18.432629 q -0.44097,0.79375 -1.14653,1.411111 -0.70555,0.617361 -1.94027,0.617361 h -4.58611 q -1.23472,0 -1.94028,-0.617361 -0.70555,-0.617361 -1.14652,-1.411111 l -9.96597,-18.432629 v 33.072899 q 0,0.881944 -0.61736,1.587499 -0.61736,0.617365 -1.5875,0.617365 z"
         id="path480"
         style="fill:#0080ff;fill-opacity:1;stroke:none" /><path
         d="m 213.58811,101.46766 q -8.11389,0 -14.11111,-2.645832 -5.99721,-2.645832 -9.3486,-7.937495 -3.35139,-5.379859 -3.70417,-13.405549 -0.0882,-3.792359 -0.0882,-7.584718 0,-3.880553 0.0882,-7.672912 0.35278,-7.937496 3.70417,-13.317354 3.43958,-5.468053 9.4368,-8.202079 6.08541,-2.734027 14.02291,-2.734027 8.02569,0 14.02291,2.734027 5.99722,2.734026 9.4368,8.202079 3.43958,5.379858 3.70416,13.317354 0.17639,3.792359 0.17639,7.672912 0,3.792359 -0.17639,7.584718 -0.26458,8.02569 -3.70416,13.405549 -3.35139,5.291663 -9.34861,7.937495 -5.99722,2.645832 -14.1111,2.645832 z m 0,-12.699993 q 4.6743,0 7.58472,-2.822221 2.99861,-2.82222 3.17499,-8.995828 0.17639,-3.880554 0.17639,-7.320135 0,-3.439582 -0.17639,-7.143746 -0.17638,-4.145137 -1.58749,-6.702774 -1.32292,-2.645832 -3.70417,-3.880554 -2.38125,-1.234721 -5.46805,-1.234721 -2.99861,0 -5.37986,1.234721 -2.38125,1.234722 -3.79236,3.880554 -1.41111,2.557637 -1.5875,6.702774 -0.0882,3.704164 -0.0882,7.143746 0,3.439581 0.0882,7.320135 0.26458,6.173608 3.175,8.995828 2.99861,2.822221 7.58472,2.822221 z"
         id="path482"
         style="fill:#0080ff;fill-opacity:1;stroke:none" /><path
         d="m 253.36377,100.58572 q -0.97014,0 -1.5875,-0.617365 -0.61736,-0.705555 -0.61736,-1.587499 V 41.054498 q 0,-0.970138 0.61736,-1.587499 0.61736,-0.617361 1.5875,-0.617361 h 23.98887 q 11.46527,0 17.99166,5.291664 6.52638,5.20347 6.52638,14.816659 0,6.261802 -2.99861,10.583328 -2.9986,4.321525 -7.93749,6.526385 l 12.08263,21.695822 q 0.26458,0.529166 0.26458,0.970138 0,0.705555 -0.61736,1.322916 -0.52916,0.52917 -1.23472,0.52917 h -11.72985 q -1.6757,0 -2.46945,-0.793753 -0.79375,-0.881944 -1.14652,-1.587499 L 276.02973,78.8017 h -8.99583 v 19.579156 q 0,0.881944 -0.70556,1.587499 -0.61736,0.617365 -1.5875,0.617365 z M 267.0339,66.278096 h 10.14235 q 4.14514,0 6.17361,-2.028471 2.11667,-2.028471 2.11667,-5.468053 0,-3.439581 -2.02847,-5.556247 -1.94028,-2.116665 -6.26181,-2.116665 H 267.0339 Z"
         id="path484"
         style="fill:#0080ff;fill-opacity:1;stroke:none" /><path
         d="m 337.06024,101.46766 q -8.11389,0 -14.11111,-2.645832 -5.99721,-2.645832 -9.3486,-7.937495 -3.35139,-5.379859 -3.70417,-13.405549 -0.0882,-3.792359 -0.0882,-7.584718 0,-3.880553 0.0882,-7.672912 0.35278,-7.937496 3.70417,-13.317354 3.43958,-5.468053 9.4368,-8.202079 6.08541,-2.734027 14.02291,-2.734027 8.02569,0 14.02291,2.734027 5.99722,2.734026 9.4368,8.202079 3.43958,5.379858 3.70416,13.317354 0.17639,3.792359 0.17639,7.672912 0,3.792359 -0.17639,7.584718 -0.26458,8.02569 -3.70416,13.405549 -3.35139,5.291663 -9.34861,7.937495 -5.99722,2.645832 -14.1111,2.645832 z m 0,-12.699993 q 4.6743,0 7.58472,-2.822221 2.99861,-2.82222 3.17499,-8.995828 0.17639,-3.880554 0.17639,-7.320135 0,-3.439582 -0.17639,-7.143746 -0.17638,-4.145137 -1.58749,-6.702774 -1.32292,-2.645832 -3.70417,-3.880554 -2.38125,-1.234721 -5.46805,-1.234721 -2.99861,0 -5.37986,1.234721 -2.38125,1.234722 -3.79236,3.880554 -1.41111,2.557637 -1.5875,6.702774 -0.0882,3.704164 -0.0882,7.143746 0,3.439581 0.0882,7.320135 0.26458,6.173608 3.175,8.995828 2.99861,2.822221 7.58472,2.822221 z"
         id="path486"
         style="fill:#0080ff;fill-opacity:1;stroke:none" /><path
         d="m 373.48448,100.58572 q -0.97014,0 -1.5875,-0.617365 -0.61736,-0.705555 -0.61736,-1.675693 v -8.554857 q 0,-1.234721 0.44097,-2.028471 0.52917,-0.793749 0.88194,-1.146527 l 28.3986,-34.572203 h -26.7229 q -0.88195,0 -1.5875,-0.617361 -0.61736,-0.617361 -0.61736,-1.587499 v -8.731246 q 0,-0.970138 0.61736,-1.587499 0.70555,-0.617361 1.5875,-0.617361 h 44.53817 q 0.97014,0 1.5875,0.617361 0.61736,0.617361 0.61736,1.587499 v 8.554857 q 0,0.970138 -0.35278,1.675693 -0.26458,0.705556 -0.79375,1.322916 l -27.60485,34.660398 h 27.51666 q 0.97013,0 1.58749,0.705555 0.70556,0.617361 0.70556,1.5875 v 8.819439 q 0,0.881944 -0.70556,1.587499 -0.61736,0.617365 -1.58749,0.617365 z"
         id="path488"
         style="fill:#0080ff;fill-opacity:1;stroke:none" /></g></g></svg>
