<svg id="SvgjsSvg1083" width="288" height="288" xmlns="http://www.w3.org/2000/svg" version="1.1" xmlns:xlink="http://www.w3.org/1999/xlink" xmlns:svgjs="http://svgjs.com/svgjs"><defs id="SvgjsDefs1084"></defs><g id="SvgjsG1085"><svg xmlns="http://www.w3.org/2000/svg" fill="none" viewBox="0 0 52 52" width="288" height="288"><path fill="#e7f1fa" d="M26.5047 37.6115C33.3949 37.6115 38.9806 32.0258 38.9806 25.1356C38.9806 18.2453 33.3949 12.6597 26.5047 12.6597C19.6144 12.6597 14.0287 18.2453 14.0287 25.1356C14.0287 32.0258 19.6144 37.6115 26.5047 37.6115Z" class="colorE7F1FA svgShape"></path><path fill="#0d68e8" d="M31.7889 40.0335C29.9542 38.4189 26.7251 37.1713 24.3033 37.1713C23.5694 37.7584 22.1017 39.2996 21.5879 40.0335C16.7444 39.006 11.754 32.0342 10.9467 28.8051C11.754 28.4382 13.5887 27.3374 14.2492 26.6769C14.7629 24.2551 14.1758 20.8793 12.9282 18.751C11.4604 18.5309 7.93785 18.6043 5.36928 19.7051C5.2225 33.8689 13.2951 46.3448 29.8074 46.565C31.4219 44.4367 31.7155 41.5012 31.7889 40.0335Z" class="colorF7E436 svgShape"></path><path fill="#2d5062" d="M30.0273 47.0785H29.8071C12.4876 46.7849 4.8553 33.2082 5.00208 19.7783V19.5581L5.22223 19.4847C7.7908 18.3105 11.3134 18.1637 12.9279 18.4573H13.0747L13.1481 18.6041C14.4691 20.8057 15.0562 24.2549 14.5425 26.7501V26.8969L14.4691 26.9702C13.8086 27.5573 12.2674 28.5114 11.3134 29.0251C12.2674 32.2542 16.8909 38.5655 21.3675 39.6663C21.9546 38.8591 23.2756 37.4648 24.0095 36.951L24.0829 36.8776H24.2296H24.303C26.8716 36.8776 30.0273 38.1252 31.9353 39.8131L32.0821 39.9599V40.1067C32.0087 42.0147 31.6418 44.8035 30.1006 47.0051L30.0273 47.0785ZM5.73595 19.9984C5.66256 31.9606 11.9005 45.9043 29.587 46.2712C30.9079 44.3632 31.2749 41.9413 31.3482 40.1067C29.5869 38.6389 26.6514 37.4647 24.3764 37.4647C23.6425 38.0518 22.3216 39.5195 21.8078 40.18L21.6611 40.4002L21.4409 40.3269C16.3771 39.2994 11.3868 32.2542 10.5062 28.8049L10.4327 28.5114L10.7263 28.3646C11.4602 28.0711 13.1481 27.0437 13.882 26.3832C14.3223 24.1816 13.8086 21.0259 12.6344 19.0444C11.0932 18.8976 8.01097 19.0444 5.73595 19.9984Z" class="color2D5062 svgShape"></path><path fill="#2d5062" d="M26.5047 28.438H21.7345V27.1904L21.8078 27.117C22.6151 26.3098 24.67 24.1081 24.8168 23.8146 25.0369 23.5944 25.2571 23.3009 25.3304 23.0807 25.4772 22.7872 25.4772 22.567 25.4772 22.3468 25.4772 22.2734 25.4773 21.3927 24.303 21.0992 23.2022 20.8056 22.1014 21.5395 21.5143 22.4202L20.9272 21.9799C21.6611 20.8791 23.0555 19.9984 24.4498 20.3653 25.6974 20.6589 26.1377 21.613 26.1377 22.2735 26.1377 22.567 26.0644 22.9339 25.9176 23.3008 25.7708 23.5944 25.4772 23.9613 25.2571 24.2549 25.0369 24.5484 22.7619 26.8969 22.3216 27.484V27.7041H26.3579V28.438H26.5047zM32.0087 28.805H31.2749V26.2365H27.6055V24.8422L30.541 20.3654H32.0087V25.5026H33.1095V26.2365H32.0087V28.805zM28.3393 25.5026H31.2749V21.0993H30.9079L28.3393 25.0623V25.5026zM25.7707 8.69683C25.5506 8.69683 25.4038 8.55006 25.4038 8.32989V4.36694C25.4038 4.14678 25.5506 4 25.7707 4 25.9909 4 26.1377 4.14678 26.1377 4.36694V8.32989C26.1377 8.55006 25.9909 8.69683 25.7707 8.69683zM19.753 9.72428C19.6062 9.72428 19.4594 9.65094 19.3861 9.50417L18.0651 5.83478C17.9917 5.61462 18.0651 5.46786 18.2852 5.39447 18.5054 5.32108 18.6522 5.39442 18.7256 5.61458L20.0466 9.28397C20.12 9.50413 20.0465 9.65089 19.8264 9.72428H19.753zM14.3957 12.8065C14.3223 12.8065 14.1755 12.7331 14.1021 12.6597L11.607 9.65083C11.4602 9.50405 11.4602 9.28393 11.6803 9.13715 11.8271 8.99038 12.0473 8.99036 12.1941 9.21052L14.6892 12.2194C14.836 12.3662 14.836 12.5864 14.6158 12.7332 14.5425 12.8066 14.4691 12.8065 14.3957 12.8065zM39.6411 42.8954C39.5677 42.8954 39.4209 42.822 39.3475 42.7486L36.8523 39.7397C36.7056 39.593 36.7056 39.3728 36.9258 39.226 37.0725 39.0793 37.2927 39.0793 37.4394 39.2994L39.9346 42.3083C40.0814 42.4551 40.0814 42.6753 39.8613 42.8221 39.8613 42.8955 39.7145 42.8954 39.6411 42.8954zM44.4846 37.1713C44.4112 37.1713 44.3379 37.1713 44.2645 37.098L40.8886 35.1165C40.7418 35.0431 40.6684 34.8229 40.7418 34.6028 40.8152 34.456 41.0354 34.3826 41.2556 34.456L44.6314 36.4374C44.7782 36.5108 44.8515 36.731 44.7782 36.9512 44.7782 37.098 44.6314 37.1713 44.4846 37.1713zM47.0532 30.126C47.0532 30.126 46.9798 30.126 47.0532 30.126L43.0902 29.4655C42.8701 29.4655 42.7233 29.2453 42.7967 29.0252 42.7967 28.805 43.0169 28.6582 43.237 28.7316L47.1266 29.3921C47.3467 29.3921 47.4935 29.6122 47.4201 29.8324 47.4201 29.9792 47.2 30.126 47.0532 30.126zM43.1637 23.3009C43.0169 23.3009 42.8702 23.1542 42.7968 23.0075 42.7968 22.7873 42.8701 22.6404 43.0903 22.5671L46.9798 21.9066C47.2 21.8333 47.3468 21.98 47.4202 22.2001 47.4936 22.4203 47.3468 22.5671 47.1266 22.6405L43.1637 23.3009C43.2371 23.3009 43.2371 23.3009 43.1637 23.3009zM41.1088 17.5034C40.962 17.5034 40.8887 17.43 40.8153 17.2832 40.7419 17.1365 40.7419 16.9163 40.9621 16.7696L44.3379 14.788C44.4847 14.7147 44.7048 14.7147 44.8516 14.9349 44.925 15.0817 44.925 15.3018 44.7048 15.4486L41.329 17.43C41.1822 17.5034 41.1822 17.5034 41.1088 17.5034zM37.1459 12.8066C37.0725 12.8066 36.9991 12.8066 36.9257 12.7332 36.7789 12.5864 36.7789 12.3662 36.8523 12.2194L39.3475 9.21054C39.4943 9.06376 39.7145 9.06378 39.8612 9.13717 40.008 9.28395 40.008 9.50407 39.9346 9.65085L37.4394 12.6597C37.366 12.8065 37.2193 12.8066 37.1459 12.8066zM31.7886 9.72428C31.7152 9.72428 31.7152 9.72428 31.6418 9.72428 31.4216 9.65089 31.3483 9.43074 31.4217 9.28397L32.7426 5.61458C32.816 5.39442 33.0362 5.32108 33.1829 5.39447 33.3297 5.46786 33.4765 5.68801 33.4031 5.83478L32.0821 9.50417C32.0821 9.65094 32.0088 9.72428 31.7886 9.72428z" class="color2D5062 svgShape"></path></svg></g></svg>